<svg width="23" height="23" viewBox="0 0 23 23" fill="none" xmlns="http://www.w3.org/2000/svg">
<path d="M1.16113 21.0268C1.86439 22.1056 2.77349 22.1056 3.49389 21.0268C5.8101 17.4836 8.01632 23.5753 9.65168 21.0667C12.1456 17.3077 13.9393 23.8272 15.8095 21.0268C18.2481 17.2962 19.7674 23.4739 21.6871 21.4281" stroke="#2F206E" stroke-width="1.5" stroke-linecap="round"/>
<path d="M2.77476 16.7239L1.23791 12.2551C0.959701 11.4461 1.47193 10.5662 2.22102 10.5662H20.5152C23.6906 10.5662 19.6286 16.7239 17.5784 16.7239" stroke="#2F206E" stroke-width="1.5" stroke-linecap="round" stroke-linejoin="round"/>
<path d="M17.5819 10.5661L14.7093 6.97527C13.9302 6.00146 12.7507 5.43457 11.5037 5.43457H7.31895C6.18533 5.43457 5.26636 6.35355 5.26636 7.48716V10.5661" stroke="#2F206E" stroke-width="1.5" stroke-linecap="round" stroke-linejoin="round"/>
<path d="M9.37193 5.43429V2.3554C9.37193 1.78859 8.91243 1.3291 8.34563 1.3291H7.31934" stroke="#2F206E" stroke-width="1.5" stroke-linecap="round" stroke-linejoin="round"/>
</svg>
