<svg width="17" height="23" viewBox="0 0 17 23" fill="none" xmlns="http://www.w3.org/2000/svg">
<path d="M14.7381 10.5964C15.0408 10.8991 15.2809 11.2584 15.4448 11.6539C15.6086 12.0494 15.6929 12.4733 15.6929 12.9014C15.6929 13.3295 15.6086 13.7533 15.4448 14.1488C15.2809 14.5443 15.0408 14.9037 14.7381 15.2063L14.7278 15.2166L8.42457 21.5208L2.11929 15.2156L2.11006 15.2063C1.80024 14.8968 1.55604 14.5279 1.39208 14.1218C1.22812 13.7157 1.14777 13.2807 1.15582 12.8428C1.16388 12.405 1.26019 11.9732 1.43898 11.5734C1.61777 11.1736 1.87537 10.814 2.19637 10.516C2.51737 10.2181 2.89517 9.988 3.30717 9.83946C3.71916 9.69093 4.15689 9.62703 4.59415 9.65158C5.03142 9.67614 5.45924 9.78865 5.85201 9.98238C6.24479 10.1761 6.59444 10.4471 6.88007 10.7791L8.42457 12.3246L9.91263 10.8366C10.2011 10.4844 10.5602 10.1965 10.9667 9.99156C11.3732 9.78659 11.8181 9.66906 12.2728 9.64653C12.7275 9.62401 13.1819 9.69698 13.6067 9.86076C14.0315 10.0245 14.4172 10.2755 14.7391 10.5974L14.7381 10.5964ZM5.3448 4.0746C5.3448 4.47891 5.42443 4.87926 5.57915 5.25279C5.73387 5.62632 5.96065 5.96572 6.24654 6.2516C6.53243 6.53749 6.87183 6.76427 7.24536 6.91899C7.61889 7.07372 8.01924 7.15335 8.42355 7.15335C8.82785 7.15335 9.2282 7.07372 9.60173 6.91899C9.97526 6.76427 10.3147 6.53749 10.6006 6.2516C10.8864 5.96572 11.1132 5.62632 11.2679 5.25279C11.4227 4.87926 11.5023 4.47891 11.5023 4.0746C11.5023 3.67029 11.4227 3.26994 11.2679 2.89641C11.1132 2.52288 10.8864 2.18348 10.6006 1.89759C10.3147 1.61171 9.97526 1.38493 9.60173 1.23021C9.2282 1.07548 8.82785 0.99585 8.42355 0.99585C8.01924 0.99585 7.61889 1.07548 7.24536 1.23021C6.87183 1.38493 6.53243 1.61171 6.24654 1.89759C5.96065 2.18348 5.73387 2.52288 5.57915 2.89641C5.42443 3.26994 5.3448 3.67029 5.3448 4.0746Z" stroke="#2F206E" stroke-width="1.5"/>
</svg>
