<svg width="23" height="21" viewBox="0 0 23 21" fill="none" xmlns="http://www.w3.org/2000/svg">
<path d="M17.5824 11.7634C19.8496 11.7634 21.6875 9.92549 21.6875 7.65826C21.6875 5.39103 19.8496 3.55308 17.5824 3.55308C16.7374 3.55308 15.952 3.80836 15.2992 4.24601M5.2668 11.7634C2.99957 11.7634 1.16162 9.92549 1.16162 7.65826C1.16162 5.39103 2.99957 3.55308 5.2668 3.55308C6.11177 3.55308 6.89711 3.80836 7.54991 4.24601M15.2992 4.24601C14.7382 2.64701 13.2153 1.50049 11.4246 1.50049C9.6339 1.50049 8.11099 2.64701 7.54991 4.24601M15.2992 4.24601C15.4486 4.67155 15.5298 5.12913 15.5298 5.60567C15.5298 5.96005 15.4849 6.30394 15.4004 6.63197M8.82279 5.60567C8.50769 5.06097 8.07104 4.59538 7.54991 4.24601" stroke="#2F206E" stroke-width="1.53944" stroke-linecap="round" stroke-linejoin="round"/>
<path d="M5.26685 16.3818C6.90794 15.743 9.06364 15.3555 11.4246 15.3555C13.7856 15.3555 15.9413 15.743 17.5824 16.3818" stroke="#2F206E" stroke-width="1.53944" stroke-linecap="round"/>
<path d="M4.24072 19.9738C6.15533 19.3351 8.67032 18.9475 11.4248 18.9475C14.1793 18.9475 16.6943 19.3351 18.6089 19.9738" stroke="#2F206E" stroke-width="1.53944" stroke-linecap="round"/>
<path d="M17.5824 10.7371V18.9474M5.26685 10.7371L5.26685 18.9474" stroke="#2F206E" stroke-width="1.53944" stroke-linecap="round"/>
</svg>
