<svg width="21" height="21" viewBox="0 0 21 21" fill="none" xmlns="http://www.w3.org/2000/svg">
<path d="M19.6613 1.28198L11.4509 10.0055" stroke="#2F206E" stroke-width="1.5" stroke-linecap="round" stroke-linejoin="round"/>
<path d="M7.80321 9.58003C5.25765 10.5565 3.22281 10.389 1.18799 9.58321C1.70174 16.1951 4.78427 18.7382 8.89434 19.7553C8.89434 19.7553 11.9909 17.5656 12.4372 12.3736C12.4856 11.8113 12.5098 11.5302 12.3929 11.2134C12.2759 10.8966 12.0464 10.6693 11.5873 10.2149C10.8324 9.46745 10.4549 9.09377 10.0068 9.00018C9.55887 8.90668 8.97367 9.13113 7.80321 9.58003Z" stroke="#2F206E" stroke-width="1.5" stroke-linecap="round" stroke-linejoin="round"/>
<path d="M2.72803 15.0818C2.72803 15.0818 5.29377 15.5767 7.85951 13.5974" stroke="#2F206E" stroke-width="1.79602" stroke-linecap="round" stroke-linejoin="round"/>
<path d="M6.83234 5.64395C6.83234 6.35247 6.25799 6.92682 5.54947 6.92682C4.84096 6.92682 4.2666 6.35247 4.2666 5.64395C4.2666 4.93544 4.84096 4.36108 5.54947 4.36108C6.25799 4.36108 6.83234 4.93544 6.83234 5.64395Z" stroke="#2F206E" stroke-width="1.5"/>
<path d="M9.39844 2.30786V2.40894" stroke="#2F206E" stroke-width="2.39469" stroke-linecap="round" stroke-linejoin="round"/>
</svg>
