<svg width="20" height="23" viewBox="0 0 20 23" fill="none" xmlns="http://www.w3.org/2000/svg">
<path d="M13.4082 18.9133C12.7128 18.9133 12.1196 18.6675 11.6287 18.1758C11.1378 17.6841 10.892 17.0914 10.8912 16.3975C10.8904 15.7036 11.1363 15.11 11.6287 14.6168C12.1212 14.1235 12.7143 13.8781 13.4082 13.8805C14.1021 13.8829 14.6953 14.1287 15.1877 14.618C15.6802 15.1073 15.9256 15.7004 15.924 16.3975C15.9224 17.0945 15.6766 17.6877 15.1865 18.177C14.6965 18.6663 14.1037 18.9117 13.4082 18.9133ZM2.3815 22.4818C1.83433 22.4818 1.37756 22.2986 1.01119 21.9323C0.644822 21.5659 0.461242 21.1087 0.460449 20.5608V5.37077C0.460449 4.8236 0.644029 4.36683 1.01119 4.00046C1.37835 3.63409 1.83552 3.45051 2.38269 3.44972H4.48693V0.797119H5.76802V3.44972H14.2777V0.797119H15.4673V3.44972H17.5715C18.1187 3.44972 18.5758 3.6333 18.943 4.00046C19.3102 4.36762 19.4933 4.82479 19.4925 5.37196V20.5608C19.4925 21.1079 19.3094 21.5651 18.943 21.9323C18.5766 22.2994 18.1191 22.4826 17.5703 22.4818H2.3815ZM2.3815 21.2923H17.5715C17.7539 21.2923 17.9216 21.2162 18.0747 21.0639C18.2277 20.9117 18.3038 20.7435 18.303 20.5596V10.13H1.64996V20.5608C1.64996 20.7431 1.72608 20.9109 1.87834 21.0639C2.0306 21.217 2.19832 21.2931 2.3815 21.2923ZM1.64996 8.93929H18.303V5.37077C18.303 5.18838 18.2269 5.02066 18.0747 4.86761C17.9224 4.71456 17.7543 4.63843 17.5703 4.63922H2.38269C2.19951 4.63922 2.03139 4.71535 1.87834 4.86761C1.72529 5.01986 1.64916 5.18798 1.64996 5.37196V8.93929Z" fill="#2F206E"/>
</svg>
