<svg width="23" height="17" viewBox="0 0 23 17" fill="none" xmlns="http://www.w3.org/2000/svg">
<path d="M8.35177 13.6866C8.35177 14.8203 7.43279 15.7392 6.29917 15.7392C5.16556 15.7392 4.24658 14.8203 4.24658 13.6866C4.24658 12.553 5.16556 11.634 6.29917 11.634C7.43279 11.634 8.35177 12.553 8.35177 13.6866Z" stroke="#2F206E" stroke-width="1.5"/>
<path d="M18.6157 13.6866C18.6157 14.8203 17.6967 15.7392 16.5631 15.7392C15.4294 15.7392 14.5105 14.8203 14.5105 13.6866C14.5105 12.553 15.4294 11.634 16.5631 11.634C17.6967 11.634 18.6157 12.553 18.6157 13.6866Z" stroke="#2F206E" stroke-width="1.5"/>
<path d="M1.1689 6.50257H17.5896M1.1689 6.50257C1.1689 7.30308 1.14839 9.62251 1.17301 11.9009C1.20992 12.6398 1.33299 13.2556 4.24955 13.6866M1.1689 6.50257C1.39042 4.71682 2.3544 2.60265 2.84664 1.80214M8.35297 6.50257V1.37109M14.5006 13.6866H8.3475M1.18531 1.37109H11.6701C11.6701 1.37109 12.2239 1.37109 12.7161 1.42036C13.6392 1.50656 14.4145 1.92529 15.1897 2.97212C16.0107 4.08051 16.6418 5.48449 17.4787 6.23574C18.8693 7.48412 21.5151 7.09782 21.6628 9.74567C21.6997 11.1004 21.6997 12.5782 21.6381 12.8246C21.5393 13.5498 20.9801 13.6683 20.2845 13.6866C19.6808 13.7027 18.953 13.658 18.5986 13.6866" stroke="#2F206E" stroke-width="1.5" stroke-linecap="round"/>
</svg>
