<svg width="22" height="22" viewBox="0 0 22 22" fill="none" xmlns="http://www.w3.org/2000/svg">
<path d="M1.16215 20.7294C2.40881 19.7451 3.42608 18.7597 5.05171 18.5353C6.45906 18.535 7.81387 19.0698 8.84154 20.0313C9.37485 20.4049 9.9915 20.6423 10.6377 20.7227C11.2838 20.8031 11.9398 20.7242 12.5485 20.4927C13.1571 20.2612 13.6998 19.8843 14.1292 19.3948C14.5586 18.9053 14.8617 18.3182 15.012 17.6846C15.659 17.8 16.3255 17.7303 16.9348 17.4836C17.544 17.2369 18.0712 16.8232 18.4557 16.2901C18.8402 15.757 19.0663 15.1262 19.1082 14.4703C19.15 13.8143 19.0058 13.1599 18.6921 12.5823C19.2638 12.3976 19.7782 12.0685 20.1854 11.6267C20.5927 11.185 20.879 10.6456 21.0167 10.0608C21.1544 9.47595 21.1388 8.86548 20.9715 8.28844C20.8041 7.7114 20.4907 7.18733 20.0614 6.76693C20.3856 6.44278 20.6427 6.05796 20.8181 5.63443C20.9936 5.21091 21.0839 4.75698 21.0839 4.29856C21.0839 3.84014 20.9936 3.38621 20.8181 2.96268C20.6427 2.53916 20.3856 2.15434 20.0614 1.83018C19.7373 1.50603 19.3524 1.2489 18.9289 1.07347C18.5054 0.898043 18.0515 0.807751 17.593 0.807751C16.6672 0.807751 15.7793 1.17553 15.1247 1.83018C14.7043 1.40094 14.1802 1.08748 13.6032 0.920128C13.0261 0.752775 12.4157 0.737197 11.8308 0.874903C11.246 1.01261 10.7066 1.29894 10.2649 1.70618C9.82314 2.11342 9.49399 2.62779 9.30928 3.19951C8.73168 2.88583 8.07726 2.74161 7.42131 2.78343C6.76537 2.82525 6.13456 3.05143 5.60147 3.43592C5.06839 3.82042 4.6547 4.34761 4.408 4.95683C4.1613 5.56606 4.09162 6.23255 4.20698 6.87963C3.57892 7.03258 2.99744 7.33586 2.51259 7.76337C2.02773 8.19087 1.65402 8.7298 1.42362 9.33376C1.19323 9.93771 1.11304 10.5886 1.18998 11.2304C1.26691 11.8722 1.49866 12.4858 1.86527 13.0181C2.65714 14.1671 3.5647 15.4556 3.35626 16.8399C3.083 18.4785 2.17344 19.4648 1.16215 20.7294ZM1.16215 20.7294L16.122 5.76961" stroke="#2F206E" stroke-width="1.54" stroke-linecap="round" stroke-linejoin="round"/>
</svg>
