<svg width="20" height="26" viewBox="0 0 20 26" fill="none" xmlns="http://www.w3.org/2000/svg">
<path d="M8.30917 12.3474C8.12807 12.4305 7.93117 12.4736 7.73192 12.4736C7.53268 12.4738 7.3358 12.4305 7.15502 12.3467C6.97424 12.263 6.81389 12.1408 6.68517 11.9888C6.662 11.9661 6.64386 11.9388 6.63193 11.9087C6.62001 11.8785 6.61455 11.8462 6.61593 11.8139C6.61731 11.7815 6.62549 11.7498 6.63994 11.7207C6.65439 11.6917 6.67478 11.6661 6.69979 11.6455C6.72477 11.6249 6.75379 11.6098 6.78497 11.6012C6.81616 11.5925 6.84881 11.5905 6.88082 11.5953C6.91282 11.6001 6.94346 11.6116 6.97075 11.629C6.99804 11.6464 7.02136 11.6693 7.03922 11.6963C7.12563 11.7951 7.2321 11.8743 7.35155 11.9287C7.47099 11.9832 7.60066 12.0115 7.73192 12.0118C7.86463 12.0136 7.99612 11.9863 8.11713 11.9318C8.23813 11.8772 8.34572 11.7969 8.43232 11.6963C8.4538 11.67 8.48079 11.6488 8.51139 11.6342C8.54198 11.6196 8.57543 11.6119 8.60934 11.6116C8.65226 11.6133 8.69384 11.627 8.72943 11.651C8.76501 11.6751 8.79318 11.7086 8.81077 11.7478C8.82836 11.7869 8.83468 11.8303 8.82901 11.8728C8.82334 11.9154 8.8059 11.9555 8.77867 11.9888C8.64978 12.1407 8.48964 12.263 8.30917 12.3474ZM12.3345 12.3474C12.1534 12.4305 11.9565 12.4736 11.7573 12.4736C11.558 12.4738 11.3612 12.4305 11.1804 12.3467C10.9996 12.263 10.8393 12.1408 10.7105 11.9888C10.6874 11.9661 10.6692 11.9388 10.6573 11.9087C10.6454 11.8785 10.6399 11.8462 10.6413 11.8139C10.6427 11.7815 10.6509 11.7498 10.6653 11.7207C10.6798 11.6917 10.7001 11.6661 10.7252 11.6455C10.7501 11.6249 10.7792 11.6098 10.8103 11.6012C10.8415 11.5925 10.8742 11.5905 10.9062 11.5953C10.9382 11.6001 10.9688 11.6116 10.9961 11.629C11.0234 11.6464 11.0467 11.6693 11.0646 11.6963C11.151 11.7951 11.2575 11.8743 11.3769 11.9287C11.4964 11.9832 11.626 12.0115 11.7573 12.0118C11.89 12.0136 12.0215 11.9863 12.1425 11.9318C12.2635 11.8772 12.3711 11.7969 12.4577 11.6963C12.4792 11.67 12.5062 11.6488 12.5368 11.6342C12.5674 11.6196 12.6008 11.6119 12.6347 11.6116C12.6786 11.6112 12.7217 11.6235 12.7586 11.6471C12.7956 11.6708 12.8249 11.7047 12.8428 11.7448C12.8608 11.7848 12.8667 11.8292 12.8598 11.8725C12.8529 11.9159 12.8335 11.9563 12.804 11.9888C12.6751 12.1407 12.515 12.263 12.3345 12.3474ZM10.0871 13.8667C10.1586 13.8661 10.2289 13.8489 10.2926 13.8164C10.3563 13.784 10.4116 13.7372 10.4541 13.6797C10.4966 13.6223 10.5253 13.5557 10.5377 13.4854C10.5501 13.415 10.5461 13.3427 10.5258 13.2741L10.0794 11.8348C10.0579 11.7659 10.0149 11.7057 9.95677 11.6629C9.89862 11.6202 9.82833 11.5971 9.75615 11.5971C9.68397 11.5971 9.61367 11.6202 9.55552 11.6629C9.49737 11.7057 9.4544 11.7659 9.43289 11.8348L8.98648 13.2741C8.96622 13.3427 8.96216 13.415 8.9746 13.4854C8.98704 13.5557 9.01565 13.6223 9.05818 13.6797C9.10071 13.7372 9.15599 13.784 9.21968 13.8164C9.28336 13.8489 9.35371 13.8661 9.42519 13.8667H10.0871ZM9.74845 14.7211C10.188 14.723 10.6214 14.6173 11.0107 14.4132C11.0373 14.399 11.0679 14.3938 11.0977 14.3986C11.1276 14.4033 11.155 14.4177 11.176 14.4395C11.1969 14.4612 11.2101 14.4893 11.2136 14.5193C11.2171 14.5493 11.2107 14.5796 11.1954 14.6056C10.9587 14.9694 10.5937 15.2309 10.173 15.338C9.75237 15.4451 9.30682 15.39 8.92491 15.1837C8.67132 15.0471 8.45675 14.8482 8.30147 14.6056C8.28616 14.5796 8.27978 14.5493 8.28329 14.5193C8.28681 14.4893 8.30003 14.4612 8.32095 14.4395C8.34187 14.4177 8.36933 14.4033 8.39916 14.3986C8.42899 14.3938 8.45956 14.399 8.48619 14.4132C8.87438 14.6203 9.30851 14.7262 9.74845 14.7211Z" fill="#2F206E"/>
<path d="M17.7606 19.841C18.5374 20.9682 19.0605 22.2504 19.2938 23.5993C19.3313 23.8201 19.3202 24.0465 19.2612 24.2626C19.2022 24.4786 19.0968 24.6792 18.9522 24.8504C18.8077 25.0215 18.6276 25.159 18.4244 25.2533C18.2213 25.3477 18 25.3965 17.776 25.3965H1.7284C1.39039 25.3962 1.06179 25.2851 0.792844 25.0804C0.523895 24.8757 0.329399 24.5885 0.239095 24.2628C0.180052 24.0464 0.169019 23.8197 0.206769 23.5985C0.440987 22.2496 0.964065 20.9673 1.74016 19.8394C2.51625 18.7116 3.52701 17.7648 4.70317 17.0641C4.34672 16.4796 4.12824 15.8215 4.06435 15.1399V15.0991L4.02432 14.5342C3.63995 14.2825 3.32009 13.944 3.09054 13.546C2.861 13.148 2.72818 12.7016 2.7028 12.2428C2.56275 11.9279 2.49038 11.587 2.49038 11.2423L2.48268 2.30643C2.48268 1.89817 2.64486 1.50663 2.93354 1.21795C3.22222 0.92927 3.61376 0.76709 4.02202 0.76709L6.6158 0.76709C7.02406 0.76709 7.41559 0.92927 7.70427 1.21795C7.99296 1.50663 8.15514 1.89817 8.15514 2.30643V3.0761H8.31523C8.75379 3.07696 9.18735 3.16923 9.58826 3.34702C9.70725 3.37769 9.8327 3.37207 9.94846 3.33086C10.3976 3.17316 10.8745 3.10976 11.3493 3.1446V2.30643C11.3493 1.89817 11.5114 1.50663 11.8001 1.21795C12.0888 0.92927 12.4803 0.76709 12.8886 0.76709L15.4824 0.76709C15.8906 0.76709 16.2822 0.92927 16.5709 1.21795C16.8595 1.50663 17.0217 1.89817 17.0217 2.30643L17.014 11.2346C17.0148 11.5794 16.9424 11.9204 16.8016 12.2352C16.7781 12.6962 16.6459 13.1451 16.4157 13.5452C16.1854 13.9453 15.8638 14.2853 15.477 14.5372L15.437 15.1022V15.143C15.3726 15.8247 15.1536 16.4828 14.7966 17.0671C15.9727 17.7675 16.9848 18.7142 17.7606 19.841ZM15.4824 2.30643H12.8886L12.8871 4.88328C12.885 5.06133 12.8578 5.23527 12.8055 5.40511L12.8124 5.41204C12.8093 5.42281 12.805 5.43333 12.7993 5.4436L12.7878 5.47053L12.7801 5.49747C12.778 5.50825 12.7752 5.51902 12.7716 5.5298L12.7654 5.52364C12.6778 5.77966 12.536 6.01381 12.3498 6.21019L10.9544 7.61021C10.8514 7.70983 10.7741 7.83303 10.7293 7.96917C10.6844 8.10531 10.6734 8.25032 10.6971 8.39168C10.7208 8.53304 10.7786 8.66651 10.8654 8.78057C10.9522 8.89464 11.0654 8.98588 11.1953 9.04641C11.3015 9.0949 11.4162 9.12107 11.5324 9.12415C11.6513 9.12959 11.7699 9.10992 11.8807 9.06642C11.9914 9.02292 12.0917 8.95657 12.1751 8.8717L12.67 8.36911C12.7573 8.28304 12.868 8.22466 12.9884 8.20127C13.1087 8.17787 13.2332 8.19052 13.3464 8.23761C13.4596 8.2847 13.5563 8.36415 13.6245 8.46599C13.6927 8.56784 13.7294 8.68755 13.7298 8.81013V11.2677C13.7295 11.3852 13.753 11.5016 13.7989 11.6098C13.8448 11.718 13.9122 11.8158 13.9969 11.8973C14.1716 12.0581 14.401 12.1466 14.6381 12.1451C14.7545 12.1406 14.8687 12.112 14.9736 12.0613C15.0785 12.0106 15.1718 11.9388 15.2476 11.8503V11.8395C15.3937 11.6718 15.4743 11.457 15.4747 11.2346L15.4824 2.30643ZM12.5969 9.51591C12.7241 9.57287 12.8455 9.6406 12.9609 9.7191V9.1711L12.7139 9.42201C12.6917 9.44261 12.6683 9.46189 12.6438 9.47974L12.5969 9.51591ZM6.6158 4.88482V2.30643H4.02202L4.03279 8.22749V11.2477C4.0333 11.2615 4.03587 11.2749 4.04049 11.2877C4.04408 11.3015 4.04639 11.3151 4.04741 11.3285C4.05357 11.4147 4.07153 11.4988 4.10129 11.5809C4.12079 11.6194 4.14285 11.6564 4.16748 11.6918C4.2383 11.821 4.34078 11.9301 4.46531 12.0088C4.58984 12.0876 4.73233 12.1334 4.87943 12.142C5.11725 12.1436 5.34585 12.055 5.52056 11.8942C5.60531 11.8127 5.67267 11.715 5.71858 11.6067C5.76448 11.4985 5.78797 11.3821 5.78764 11.2646V8.80936C5.78846 8.68694 5.8253 8.56748 5.89357 8.46586C5.96184 8.36425 6.05852 8.28499 6.17154 8.23796C6.28456 8.19092 6.40893 8.17821 6.52913 8.20139C6.64933 8.22458 6.76005 8.28264 6.84747 8.36834L7.34237 8.87093C7.42574 8.9558 7.52606 9.02215 7.6368 9.06565C7.74753 9.10915 7.86619 9.12882 7.98504 9.12338C8.10143 9.12032 8.21599 9.09371 8.32182 9.04517C8.42764 8.99662 8.52254 8.92714 8.60077 8.84091C8.75569 8.67096 8.83839 8.44739 8.83135 8.21754C8.82431 7.98769 8.72809 7.76959 8.56306 7.60944L7.1638 6.21019C6.97358 6.01015 6.8296 5.77079 6.74202 5.50902L6.72817 5.52287C6.65342 5.31847 6.61537 5.10246 6.6158 4.88482ZM6.55423 9.70602C6.66865 9.63111 6.7882 9.5662 6.91289 9.51129L6.87518 9.48205C6.84922 9.46234 6.82454 9.441 6.80129 9.41816L6.55423 9.16725V9.70602ZM4.47612 12.8509C4.51255 12.9073 4.55257 12.9607 4.59619 13.011C4.82709 13.2673 5.14573 13.4297 5.48977 13.4659L5.59753 14.9898C5.63139 15.4016 5.75531 15.801 5.96158 16.1597C5.99698 16.2208 6.03496 16.2792 6.07549 16.3352L6.09473 16.3637L6.11551 16.3944C6.14271 16.4334 6.16965 16.4709 6.19633 16.5068C6.22506 16.5427 6.25508 16.5779 6.28638 16.6123L6.30793 16.6361C6.36745 16.7033 6.4298 16.7672 6.49496 16.8278L6.57962 16.9047C6.66685 16.9786 6.75819 17.0469 6.85363 17.1095L6.89827 17.1402C6.96892 17.1842 7.04133 17.2253 7.11531 17.2634V17.2595L8.16822 17.5135C8.25853 17.5351 8.34986 17.553 8.44222 17.5674H11.1161C11.2783 17.5424 11.4386 17.5056 11.5956 17.4574L12.5723 17.1556C12.6227 17.124 12.6723 17.0909 12.7208 17.0564C12.9214 16.92 13.1026 16.7571 13.2596 16.5722L13.2665 16.5653C13.6391 16.12 13.8632 15.5695 13.9076 14.9906L14.0154 13.4666C14.3596 13.4304 14.6781 13.2681 14.9097 13.011C14.9513 12.9622 14.989 12.9109 15.0229 12.857C14.9065 12.8897 14.7866 12.9086 14.6658 12.9132H14.6127C14.1757 12.9128 13.7567 12.7391 13.4476 12.4302C13.1385 12.1213 12.9646 11.7024 12.964 11.2654V10.4811C12.8874 10.5383 12.7949 10.5703 12.6993 10.5727C12.597 10.5727 12.4973 10.5404 12.4145 10.4803C12.0917 10.2693 11.7036 10.1818 11.3216 10.234C11.2598 10.2415 11.1972 10.2367 11.1374 10.2198C11.0776 10.2029 11.0217 10.1743 10.973 10.1356C10.9243 10.0969 10.8838 10.049 10.8538 9.99453C10.8238 9.94008 10.8049 9.88021 10.7982 9.81839C10.7967 9.7807 10.7998 9.74296 10.8074 9.70602C10.5905 9.59596 10.4009 9.43874 10.2526 9.24589C10.1043 9.05303 10.0011 8.82944 9.95043 8.59149C9.8998 8.35354 9.90307 8.10728 9.96 7.87076C10.0169 7.63424 10.1261 7.41346 10.2794 7.22461L10.1086 7.21845C9.98599 7.21312 9.86333 7.21004 9.74065 7.20922C9.62212 7.20922 9.5136 7.21383 9.40585 7.21845L9.23883 7.22538C9.39303 7.41564 9.50242 7.63817 9.55889 7.87647C9.61536 8.11478 9.61747 8.36273 9.56506 8.60196C9.51264 8.84118 9.40705 9.06555 9.25611 9.2584C9.10517 9.45126 8.91276 9.60767 8.69313 9.71603C8.70083 9.74989 8.70365 9.78401 8.7016 9.81839C8.6856 9.94215 8.62198 10.0548 8.52425 10.1324C8.42653 10.21 8.30239 10.2465 8.17823 10.234C7.79527 10.1854 7.40759 10.2755 7.0853 10.488C7.00351 10.5434 6.90698 10.5729 6.80822 10.5727C6.71721 10.5706 6.62885 10.5417 6.55423 10.4895V11.2654C6.55341 11.7022 6.37941 12.1209 6.07036 12.4297C5.76131 12.7384 5.34245 12.9121 4.9056 12.9125H4.85249C4.72496 12.9076 4.59854 12.8869 4.47612 12.8509ZM12.6054 18.0092L12.5907 18.2409C12.545 18.9139 12.2484 19.5453 11.7596 20.0103C11.2709 20.4753 10.6255 20.74 9.95101 20.7522C9.27652 20.7644 8.62199 20.5231 8.11676 20.0761C7.61153 19.6291 7.29235 19.0088 7.2223 18.3379L7.20152 18.1308C6.98449 18.0543 6.77543 17.9569 6.57732 17.8399C5.32808 18.3539 4.22876 19.1748 3.38115 20.2266C2.53355 21.2785 1.96509 22.5272 1.7284 23.8571H17.776C17.5396 22.5275 16.9719 21.2788 16.1254 20.2266C15.2788 19.1743 14.1807 18.3524 12.9325 17.8368C12.8263 17.8999 12.7172 17.9574 12.6054 18.0092ZM11.2215 18.3302C11.0143 18.3626 10.8047 18.378 10.595 18.3763H8.96329C8.75565 18.3762 8.54831 18.3607 8.34293 18.3302C8.22623 18.329 8.10963 18.3226 7.99351 18.3109C8.05072 18.7814 8.2796 19.2141 8.63625 19.5262C8.99289 19.8382 9.4522 20.0077 9.92606 20.0019C10.3999 19.9962 10.855 19.8158 11.204 19.4952C11.553 19.1746 11.7714 18.7364 11.8172 18.2647C11.6212 18.3032 11.4226 18.325 11.2215 18.3302Z" fill="#2F206E"/>
</svg>
