<svg width="19" height="23" viewBox="0 0 19 23" fill="none" xmlns="http://www.w3.org/2000/svg">
<path d="M14.5562 6.49696V10.6021C14.5562 13.4362 12.2587 15.7336 9.42469 15.7336C6.59065 15.7336 4.29321 13.4362 4.29321 10.6021V6.49696C4.29321 3.66292 6.59065 1.36548 9.42469 1.36548C12.2587 1.36548 14.5562 3.66292 14.5562 6.49696Z" stroke="#2F206E" stroke-width="1.53944"/>
<path d="M14.5562 6.49707H11.4773M14.5562 10.6023H11.4773" stroke="#2F206E" stroke-width="1.53944" stroke-linecap="round"/>
<path d="M17.6351 10.6023C17.6351 15.1368 13.9592 18.8127 9.42472 18.8127M9.42472 18.8127C4.89026 18.8127 1.21436 15.1368 1.21436 10.6023M9.42472 18.8127V21.8915M9.42472 21.8915H12.5036M9.42472 21.8915H6.34583" stroke="#2F206E" stroke-width="1.53944" stroke-linecap="round"/>
</svg>
