<svg width="23" height="23" viewBox="0 0 23 23" fill="none" xmlns="http://www.w3.org/2000/svg">
<path d="M11.4241 21.3706C17.0922 21.3706 21.6871 16.7758 21.6871 11.1077C21.6871 5.43961 17.0922 0.844727 11.4241 0.844727C5.75602 0.844727 1.16113 5.43961 1.16113 11.1077C1.16113 16.7758 5.75602 21.3706 11.4241 21.3706Z" stroke="#2F206E" stroke-width="1.53944"/>
<path d="M13.4766 15.2129C12.8885 15.8615 12.1834 16.2392 11.424 16.2392C10.6645 16.2392 9.95944 15.8615 9.37137 15.2129M8.34507 10.5945C8.05155 10.2702 7.69851 10.0814 7.31878 10.0814C6.93905 10.0814 6.586 10.2702 6.29248 10.5945M16.5554 10.5945C16.2619 10.2702 15.9089 10.0814 15.5291 10.0814C15.1494 10.0814 14.7964 10.2702 14.5028 10.5945M11.424 0.844727C10.9249 0.844714 10.4333 0.966028 9.99148 1.19822C9.5497 1.43041 9.17098 1.76652 8.88795 2.17759C8.60492 2.58866 8.42607 3.06237 8.36679 3.55792C8.30751 4.05348 8.36959 4.55601 8.54768 5.02224C8.72576 5.48847 9.01452 5.90442 9.38907 6.23426C9.76363 6.5641 10.2128 6.79795 10.6978 6.91565C11.1828 7.03336 11.6891 7.03139 12.1732 6.90993C12.6573 6.78847 13.1046 6.55115 13.4766 6.21841" stroke="#2F206E" stroke-width="1.53944" stroke-linecap="round"/>
</svg>
