<svg width="25" height="25" viewBox="0 0 25 25" fill="none" xmlns="http://www.w3.org/2000/svg">
<path d="M0.879395 23.5209C1.97411 23.962 3.17242 24.0798 4.33208 23.8602C5.49174 23.6407 6.56405 23.093 7.42174 22.2822C8.56532 23.3648 10.0802 23.9682 11.655 23.9682C13.2298 23.9682 14.7447 23.3648 15.8883 22.2822C16.968 23.3042 18.3811 23.9011 19.8665 23.9626C21.352 24.0241 22.8095 23.546 23.97 22.6167M17.8125 19.3502V3.95644C17.8125 3.1399 18.1369 2.35681 18.7143 1.77943C19.2916 1.20205 20.0747 0.877686 20.8913 0.877686C21.7078 0.877686 22.4909 1.20205 23.0683 1.77943C23.6457 2.35681 23.97 3.1399 23.97 3.95644M8.57627 19.3502V3.95644C8.57627 3.1399 8.90064 2.35681 9.47801 1.77943C10.0554 1.20205 10.8385 0.877686 11.655 0.877686C12.4716 0.877686 13.2546 1.20205 13.832 1.77943C14.4094 2.35681 14.7338 3.1399 14.7338 3.95644M8.57627 11.6533H17.8125M8.57627 16.2714H17.8125M8.57627 7.03519H17.8125" stroke="#2F206E" stroke-width="1.5" stroke-linecap="round" stroke-linejoin="round"/>
</svg>
