<svg width="23" height="23" viewBox="0 0 23 23" fill="none" xmlns="http://www.w3.org/2000/svg">
<path d="M1.16162 22.1802L21.6875 22.1802" stroke="#2F206E" stroke-width="1.53944" stroke-linecap="round" stroke-linejoin="round"/>
<path d="M13.4774 3.70679L9.37217 3.70679C7.67399 3.70679 7.31958 4.0612 7.31958 5.75938L7.31958 22.1801L15.5299 22.1801L15.5299 5.75938C15.5299 4.0612 15.1755 3.70679 13.4774 3.70679Z" stroke="#2F206E" stroke-width="1.53944" stroke-linejoin="round"/>
<path d="M7.31947 12.9434L4.24058 12.9434C2.5424 12.9434 2.18799 13.2978 2.18799 14.996L2.18799 22.18H7.31947L7.31947 12.9434Z" stroke="#2F206E" stroke-width="1.53944" stroke-linejoin="round"/>
<path d="M18.6087 12.9434H15.5298L15.5298 22.18H20.6613L20.6613 14.996C20.6613 13.2978 20.3069 12.9434 18.6087 12.9434Z" stroke="#2F206E" stroke-width="1.53944" stroke-linejoin="round"/>
<path d="M11.4246 3.70664L11.4246 1.65405" stroke="#2F206E" stroke-width="1.53944" stroke-linecap="round" stroke-linejoin="round"/>
<path d="M11.4246 22.18L11.4246 20.1274" stroke="#2F206E" stroke-width="1.53944" stroke-linecap="round" stroke-linejoin="round"/>
<path d="M10.3984 14.9961H12.451M10.3984 11.404H12.451M10.3984 7.81201L12.451 7.81201" stroke="#2F206E" stroke-width="1.53944" stroke-linecap="round" stroke-linejoin="round"/>
</svg>
