<svg width="23" height="21" viewBox="0 0 23 21" fill="none" xmlns="http://www.w3.org/2000/svg">
<path d="M1.16162 15.7053L21.6875 15.7053" stroke="#2F206E" stroke-width="1.53944" stroke-linecap="round"/>
<path d="M11.4247 5.44234C11.4247 5.44234 12.9641 4.38155 12.9641 3.07299C12.9641 0.758549 9.88525 0.758549 9.88525 3.07299C9.88525 4.38155 11.4247 5.44234 11.4247 5.44234Z" stroke="#2F206E" stroke-width="1.53944" stroke-linejoin="round"/>
<path d="M2.18799 15.7053L2.82559 18.2557C3.05403 19.1695 3.87503 19.8105 4.8169 19.8105L18.0324 19.8105C18.9743 19.8105 19.7953 19.1695 20.0237 18.2557L20.6613 15.7053" stroke="#2F206E" stroke-width="1.53944" stroke-linecap="round"/>
<path d="M20.1482 13.1396C19.6368 8.80538 15.9262 5.44238 11.4247 5.44238C6.92321 5.44238 3.21262 8.80538 2.70117 13.1396" stroke="#2F206E" stroke-width="1.53944" stroke-linecap="round"/>
</svg>
