<svg width="20" height="23" viewBox="0 0 20 23" fill="none" xmlns="http://www.w3.org/2000/svg">
<path d="M1.31152 4.69144H6.66116C6.98547 4.69149 7.30478 4.61148 7.59076 4.45853C7.87674 4.30557 8.12054 4.08439 8.30053 3.81461L9.10051 2.61267C9.28051 2.34289 9.52431 2.12171 9.81029 1.96875C10.0963 1.81579 10.4156 1.73579 10.7399 1.73584H15.1615C15.5752 1.73574 15.9784 1.86586 16.3141 2.10777C16.6497 2.34967 16.9006 2.69108 17.0314 3.08359L17.5673 4.69144M19.0451 4.69144H6.23752" stroke="#2F206E" stroke-width="1.5" stroke-linecap="round"/>
<path d="M17.5673 4.69141L16.9565 14.4508C16.9361 14.7726 16.9161 15.0738 16.8964 15.3542M2.78931 4.69141L3.38535 14.4419C3.53707 16.8202 3.61392 18.0084 4.24642 18.8645C4.55873 19.2871 4.96167 19.6438 5.42866 19.9118C6.37445 20.4546 7.63945 20.4546 10.1714 20.4546H12.6413" stroke="#2F206E" stroke-width="1.5" stroke-linecap="round"/>
<path d="M18.0599 18.4842C18.0599 17.7003 17.7485 16.9485 17.1942 16.3942C16.6399 15.84 15.8882 15.5286 15.1043 15.5286C14.3204 15.5286 13.5686 15.84 13.0144 16.3942C12.4601 16.9485 12.1487 17.7003 12.1487 18.4842C12.1487 19.268 12.4601 20.0198 13.0144 20.5741C13.5686 21.1284 14.3204 21.4398 15.1043 21.4398C15.8882 21.4398 16.6399 21.1284 17.1942 20.5741C17.7485 20.0198 18.0599 19.268 18.0599 18.4842Z" stroke="#2F206E" stroke-width="1.5"/>
</svg>
